<svg id="Layer_1" data-name="Layer 1" xmlns="http://www.w3.org/2000/svg" viewBox="0 0 203.8 70"><defs><style>.cls-1{fill:#e82c2a;}</style></defs><path class="cls-1" d="M392.74,452.92h16.31c11.4,0,16.29,5,16.27,15.11,0,1.61,0,2.42,0,4,0,6.76-2.32,11.17-7.21,13.35v.19c5.5,1.3,7.29,6.07,7.28,13.49,0,4.61,0,6.92,0,11.54,0,3.19.09,5.53,1.19,7.84-4.48.48-6.71.73-11.18,1.28-.6-1.65-1-2.65-1-8.1,0-4.9,0-7.35,0-12.25,0-6.21-1.89-8.1-6.88-7.71l-3.79.3q0,14.64,0,29.3c-4.38.61-6.57.94-10.95,1.63Zm15,29.06c4.1-.23,6.6-2.08,6.6-7.44,0-2.07,0-3.1,0-5.17,0-4.78-1.69-6.85-5.59-6.78l-5,.1c0,7.81,0,11.72,0,19.53Z" transform="translate(-392.74 -452.92)"/><path class="cls-1" d="M441.54,452.92h14.91q5.61,31.27,11.32,62.54c-4.41.18-6.62.29-11,.55-.79-5-1.19-7.45-2-12.43v.18c-5,.24-7.51.39-12.51.71-.81,5.07-1.22,7.61-2,12.71-4.08.34-6.12.53-10.2.94Q435.71,485.51,441.54,452.92Zm11.93,42.31Q451,479.63,448.62,464h-.2q-2.43,15.84-4.85,31.69C447.53,495.5,449.51,495.4,453.47,495.23Z" transform="translate(-392.74 -452.92)"/><path class="cls-1" d="M473.14,452.92h29.1c0,3.54,0,5.32,0,8.86-7.25,0-10.87,0-18.11,0,0,6.91,0,10.37,0,17.29,5.69,0,8.53-.05,14.22,0v8.85c-5.69,0-8.54,0-14.23,0,0,10.82,0,16.23,0,27.05-4.41.07-6.62.13-11,.27Z" transform="translate(-392.74 -452.92)"/><path class="cls-1" d="M507.54,452.92h11l.06,53.51c7.26.23,10.89.38,18.14.79,0,3.62,0,5.43,0,9-9.7-.65-19.45-1.07-29.17-1.24Q507.57,484,507.54,452.92Z" transform="translate(-392.74 -452.92)"/><path class="cls-1" d="M541.94,452.92h11l.12,64.61c-4.4-.4-6.6-.58-11-.9Z" transform="translate(-392.74 -452.92)"/><path class="cls-1" d="M570.89,485.39q-6-16.26-12.15-32.47h11.6c3,8.58,4.46,12.92,7.43,21.73h.2c3-8.57,4.54-12.91,7.57-21.74h10.4Q590,469.6,583.87,486.21q6.52,18.29,12.67,36.71c-4.61-.73-6.92-1.07-11.54-1.72-3.19-10-4.79-14.86-8-24.49l-.2,0c-3.26,9.1-4.89,13.58-8.15,22.43-4.15-.47-6.23-.69-10.39-1.1Q564.65,501.73,570.89,485.39Z" transform="translate(-392.74 -452.92)"/></svg>